<svg width="20" height="21" viewBox="0 0 20 21" fill="none" xmlns="http://www.w3.org/2000/svg">
<path d="M10 0.5C4.47715 0.5 0 4.97715 0 10.5C0 16.0228 4.47715 20.5 10 20.5C15.5228 20.5 20 16.0228 20 10.5C19.9936 4.97982 15.5202 0.506429 10 0.5Z" fill="#C28843" fill-opacity="0.15"/>
<path d="M15.7722 7.33362L10.068 15.0745C9.93197 15.2549 9.72912 15.3732 9.50503 15.4027C9.28094 15.4321 9.05441 15.3703 8.87634 15.2311L4.80301 11.9745C4.44356 11.6868 4.38536 11.1622 4.67301 10.8028C4.96066 10.4433 5.48523 10.3851 5.84468 10.6728L9.24134 13.3903L14.4305 6.34778C14.6007 6.09244 14.8974 5.95127 15.2029 5.98032C15.5083 6.00936 15.7731 6.20393 15.8921 6.48676C16.0111 6.7696 15.965 7.09494 15.7722 7.33362Z" fill="#FF7A00"/>
</svg>
