<svg width="21" height="21" viewBox="0 0 21 21" fill="none" xmlns="http://www.w3.org/2000/svg">
<path d="M10.5 0.5C4.97715 0.5 0.5 4.97715 0.5 10.5C0.5 16.0228 4.97715 20.5 10.5 20.5C16.0228 20.5 20.5 16.0228 20.5 10.5C20.4936 4.97982 16.0202 0.506429 10.5 0.5Z" fill="#C28843" fill-opacity="0.15"/>
<path d="M16.2722 7.33362L10.568 15.0745C10.432 15.2549 10.2291 15.3732 10.005 15.4027C9.78094 15.4321 9.55441 15.3703 9.37634 15.2311L5.30301 11.9745C4.94356 11.6868 4.88536 11.1622 5.17301 10.8028C5.46066 10.4433 5.98523 10.3851 6.34468 10.6728L9.74134 13.3903L14.9305 6.34778C15.1007 6.09244 15.3974 5.95127 15.7029 5.98032C16.0083 6.00936 16.2731 6.20393 16.3921 6.48676C16.5111 6.7696 16.465 7.09494 16.2722 7.33362Z" fill="#FF7A00"/>
</svg>
