<svg width="23" height="22" viewBox="0 0 23 22" fill="none" xmlns="http://www.w3.org/2000/svg">
<path d="M7.61825 10.1135C7.16619 10.115 6.72213 10.2329 6.3288 10.4557C6.88256 9.02235 7.80101 7.75844 8.99325 6.78904C9.06146 6.73286 9.11794 6.6638 9.15947 6.5858C9.20099 6.50779 9.22674 6.42237 9.23526 6.33441C9.24377 6.24646 9.23487 6.15768 9.20908 6.07316C9.18328 5.98864 9.14109 5.91003 9.08491 5.84182C9.02874 5.7736 8.95967 5.71712 8.88167 5.6756C8.80366 5.63407 8.71824 5.60832 8.63029 5.59981C8.54233 5.5913 8.45356 5.60019 8.36904 5.62599C8.28452 5.65178 8.20591 5.69397 8.13769 5.75015C5.69325 7.73626 4.60547 10.4863 4.60547 12.1913C4.60968 12.7941 4.78933 13.3827 5.12249 13.8852C5.45565 14.3876 5.9279 14.7822 6.48158 15.0207C6.83991 15.1943 7.23232 15.2861 7.63047 15.2896C7.98092 15.3066 8.33117 15.2523 8.66 15.1299C8.98883 15.0076 9.28938 14.8197 9.54343 14.5777C9.79748 14.3357 9.99973 14.0446 10.1379 13.7221C10.2761 13.3996 10.3474 13.0524 10.3474 12.7015C10.3474 12.3507 10.2761 12.0035 10.1379 11.681C9.99973 11.3585 9.79748 11.0674 9.54343 10.8254C9.28938 10.5834 8.98883 10.3955 8.66 10.2731C8.33117 10.1508 7.98092 10.0965 7.63047 10.1135H7.61825Z" fill="#FF7A00"/>
<path d="M14.4268 10.1143C13.9747 10.1152 13.5305 10.2331 13.1374 10.4565C13.6909 9.02462 14.607 7.76113 15.7957 6.78981C15.8701 6.73618 15.9328 6.66788 15.9798 6.58914C16.0268 6.51039 16.0572 6.42285 16.0692 6.33191C16.0811 6.24097 16.0743 6.14854 16.0492 6.06033C16.024 5.97212 15.9811 5.88998 15.9231 5.81898C15.865 5.74797 15.793 5.6896 15.7116 5.64745C15.6301 5.6053 15.5409 5.58027 15.4494 5.57389C15.3579 5.56752 15.266 5.57993 15.1795 5.61038C15.093 5.64082 15.0136 5.68865 14.9463 5.75092C12.5018 7.73703 11.4141 10.487 11.4141 12.192C11.417 12.7881 11.5914 13.3707 11.9165 13.8702C12.2416 14.3698 12.7036 14.7652 13.2474 15.0093C13.6148 15.1879 14.0183 15.2799 14.4268 15.2781C14.7773 15.2952 15.1275 15.2409 15.4564 15.1185C15.7852 14.9961 16.0858 14.8082 16.3398 14.5662C16.5938 14.3242 16.7961 14.0332 16.9343 13.7107C17.0725 13.3882 17.1438 13.0409 17.1438 12.6901C17.1438 12.3392 17.0725 11.992 16.9343 11.6695C16.7961 11.347 16.5938 11.0559 16.3398 10.8139C16.0858 10.5719 15.7852 10.3841 15.4564 10.2617C15.1275 10.1393 14.7773 10.085 14.4268 10.102V10.1143Z" fill="#FF7A00"/>
</svg>
