<svg width="31" height="31" viewBox="0 0 31 31" fill="none" xmlns="http://www.w3.org/2000/svg">
<g clip-path="url(#clip0_1011_869)">
<path d="M31 15.5007V15.4929C31 10.9062 29.0031 6.78711 25.832 3.95448L25.8165 3.94157C25.7774 3.89935 25.7336 3.86165 25.6861 3.82919L25.6835 3.8279C22.8671 1.35504 19.2453 -0.00532115 15.4974 0.00198238C11.5811 0.00198238 8.00575 1.4564 5.28034 3.85632L5.29713 3.84211C5.26428 3.86702 5.23399 3.89515 5.20671 3.92607C3.56827 5.37685 2.25679 7.16052 1.35917 9.1564C0.461546 11.1523 -0.00173973 13.3161 4.90919e-06 15.5046C4.90919e-06 20.09 1.99434 24.2091 5.1628 27.043L5.1783 27.0559C5.21933 27.1025 5.26523 27.1445 5.31521 27.1812L5.3178 27.1825C8.13342 29.6517 11.7525 31.0101 15.4974 31.0033C19.2599 31.0091 22.8944 29.6381 25.7158 27.1489L25.699 27.1632C27.3658 25.714 28.702 23.9237 29.617 21.9134C30.532 19.9031 31.0045 17.7197 31.0026 15.511V15.502L31 15.5007ZM25.2366 25.5822C24.4688 24.9611 23.643 24.4152 22.7708 23.9521L22.6868 23.9107C23.4786 21.6284 23.9553 18.9972 24.0005 16.2602V16.2395H29.5043C29.3187 19.7805 27.7945 23.1187 25.2405 25.5783L25.2366 25.5822ZM16.2388 23.6382C17.896 23.7273 19.4448 24.0916 20.8733 24.6844L20.7803 24.6509C19.6359 27.26 18.0252 29.0529 16.2388 29.4468V23.6382ZM16.2388 22.1605V16.2395H22.5267C22.4768 18.6914 22.0516 21.1213 21.266 23.4444L21.3164 23.2752C19.7127 22.6161 18.0071 22.2394 16.275 22.1618L16.2401 22.1605H16.2388ZM16.2388 14.7619V8.84086C18.0177 8.75967 19.7689 8.37027 21.4145 7.68998L21.3125 7.72744C22.0294 9.81865 22.4698 12.2289 22.5267 14.7347V14.7619H16.2388ZM16.2388 7.36319V1.55715C18.0252 1.95111 19.6359 3.73619 20.7803 6.35311C19.4448 6.90852 17.896 7.27148 16.2763 7.3619L16.2388 7.36319ZM19.9253 2.19652C21.4473 2.70419 22.8708 3.46967 24.1335 4.45952L24.1038 4.43627C23.5316 4.88577 22.8896 5.30944 22.2128 5.67757L22.1405 5.71373C21.5935 4.423 20.8416 3.22918 19.9136 2.17844L19.9253 2.19265V2.19652ZM14.7586 1.56102V7.36319C13.1653 7.28191 11.5978 6.92803 10.1241 6.31694L10.2171 6.35052C11.3667 3.74136 12.9748 1.94982 14.7612 1.55586L14.7586 1.56102ZM8.85825 5.70986C8.15808 5.33315 7.49093 4.89804 6.86392 4.40915L6.89492 4.4324C8.12088 3.4716 9.49985 2.72404 10.974 2.22107L11.0722 2.19136C10.1685 3.21363 9.43224 4.37235 8.89055 5.62461L8.85825 5.70986ZM14.7612 8.83957V14.7606H8.47334C8.53017 12.2276 8.97063 9.81736 9.73788 7.55694L9.6875 7.72615C11.2905 8.38421 12.9952 8.76045 14.7263 8.83827L14.7612 8.83957ZM14.7612 16.2382V22.1592C12.9823 22.2404 11.2311 22.6298 9.58546 23.3101L9.6875 23.2727C8.97063 21.1827 8.53017 18.7712 8.47334 16.2654V16.2382H14.7612ZM14.7612 23.6369V29.4429C12.9748 29.049 11.3641 27.2639 10.2197 24.647C11.5553 24.0916 13.104 23.7299 14.7237 23.6395L14.7612 23.6369ZM11.0799 28.8036C9.55828 28.2974 8.13484 27.5337 6.87167 26.5457L6.90267 26.569C7.47488 26.1195 8.11684 25.6958 8.79367 25.3277L8.866 25.2915C9.40835 26.5828 10.1603 27.7756 11.0915 28.8217L11.0799 28.8087V28.8036ZM22.1418 25.2902C22.8909 25.6971 23.5329 26.1195 24.1361 26.5909L24.1051 26.5677C22.8791 27.5285 21.5002 28.2761 20.026 28.779L19.9278 28.8087C20.8315 27.7869 21.5678 26.6286 22.1095 25.3768L22.1418 25.2928V25.2902ZM29.5043 14.7619H24.0005C23.9609 12.0893 23.4997 9.43981 22.6339 6.91111L22.6868 7.08936C23.5993 6.60894 24.4631 6.04141 25.2663 5.39469L25.2353 5.41794C27.7841 7.86827 29.3087 11.1941 29.5017 14.7244L29.503 14.7606L29.5043 14.7619ZM5.76342 5.41923C6.50742 6.02373 7.34313 6.57786 8.22921 7.04932L8.31317 7.09065C7.52138 9.37302 7.04475 12.0041 6.99955 14.7412V14.7619H1.49446C1.68007 11.2209 3.20418 7.88271 5.75826 5.42311L5.76342 5.41923ZM1.49575 16.2395H6.99955C7.03914 18.912 7.50035 21.5616 8.36613 24.0903L8.31317 23.912C7.34313 24.4274 6.50871 24.9815 5.73371 25.6067L5.76471 25.5834C3.21591 23.1331 1.69127 19.8073 1.49834 16.277L1.49705 16.2408L1.49575 16.2395Z" fill="black"/>
</g>
<defs>
<clipPath id="clip0_1011_869">
<rect width="31" height="31" fill="white"/>
</clipPath>
</defs>
</svg>
