<svg width="65" height="65" viewBox="0 0 65 65" fill="none" xmlns="http://www.w3.org/2000/svg">
<g clip-path="url(#clip0_2647_2069)">
<circle cx="32.5" cy="32.5" r="32" fill="white" stroke="#FF7A00"/>
<path d="M32.5 40C34.4891 40 36.3968 39.2098 37.8033 37.8033C39.2098 36.3968 40 34.4891 40 32.5C40 30.5109 39.2098 28.6032 37.8033 27.1967C36.3968 25.7902 34.4891 25 32.5 25C30.5109 25 28.6032 25.7902 27.1967 27.1967C25.7902 28.6032 25 30.5109 25 32.5C25 34.4891 25.7902 36.3968 27.1967 37.8033C28.6032 39.2098 30.5109 40 32.5 40Z" fill="#FF7A00"/>
<path fill-rule="evenodd" clip-rule="evenodd" d="M32.5 10C33.163 10 33.7989 10.2634 34.2678 10.7322C34.7366 11.2011 35 11.837 35 12.5V15.175C38.7399 15.7156 42.2046 17.4515 44.8765 20.1235C47.5485 22.7954 49.2844 26.2601 49.825 30H52.5C53.163 30 53.7989 30.2634 54.2678 30.7322C54.7366 31.2011 55 31.837 55 32.5C55 33.163 54.7366 33.7989 54.2678 34.2678C53.7989 34.7366 53.163 35 52.5 35H49.825C49.2844 38.7399 47.5485 42.2046 44.8765 44.8765C42.2046 47.5485 38.7399 49.2844 35 49.825V52.5C35 53.163 34.7366 53.7989 34.2678 54.2678C33.7989 54.7366 33.163 55 32.5 55C31.837 55 31.2011 54.7366 30.7322 54.2678C30.2634 53.7989 30 53.163 30 52.5V49.825C26.2601 49.2844 22.7954 47.5485 20.1235 44.8765C17.4515 42.2046 15.7156 38.7399 15.175 35H12.5C11.837 35 11.2011 34.7366 10.7322 34.2678C10.2634 33.7989 10 33.163 10 32.5C10 31.837 10.2634 31.2011 10.7322 30.7322C11.2011 30.2634 11.837 30 12.5 30H15.175C15.716 26.2603 17.452 22.7958 20.1239 20.1239C22.7958 17.452 26.2603 15.716 30 15.175V12.5C30 11.837 30.2634 11.2011 30.7322 10.7322C31.2011 10.2634 31.837 10 32.5 10ZM20 32.5C20 29.1848 21.317 26.0054 23.6612 23.6612C26.0054 21.317 29.1848 20 32.5 20C35.8152 20 38.9946 21.317 41.3388 23.6612C43.683 26.0054 45 29.1848 45 32.5C45 35.8152 43.683 38.9946 41.3388 41.3388C38.9946 43.683 35.8152 45 32.5 45C29.1848 45 26.0054 43.683 23.6612 41.3388C21.317 38.9946 20 35.8152 20 32.5Z" fill="#FF7A00"/>
</g>
<defs>
<clipPath id="clip0_2647_2069">
<rect width="65" height="65" rx="32.5" fill="white"/>
</clipPath>
</defs>
</svg>
