<svg width="65" height="65" viewBox="0 0 65 65" fill="none" xmlns="http://www.w3.org/2000/svg">
<g clip-path="url(#clip0_2647_2001)">
<circle cx="32.5" cy="32.5" r="32" fill="white" stroke="#FF7A00"/>
<path d="M10 14.2343C10.0041 13.6434 10.2405 13.0778 10.6582 12.6597C11.0758 12.2417 11.6411 12.0047 12.232 12H52.768C54.001 12 55 13.0013 55 14.2343V50.2658C54.9959 50.8566 54.7595 51.4222 54.3418 51.8403C53.9242 52.2583 53.3589 52.4953 52.768 52.5H12.232C11.6398 52.4994 11.0721 52.2637 10.6536 51.8448C10.2351 51.4259 10 50.8579 10 50.2658V14.2343ZM19 39V43.5H46V39H19ZM19 21V34.5H32.5V21H19ZM37 21V25.5H46V21H37ZM37 30V34.5H46V30H37ZM23.5 25.5H28V30H23.5V25.5Z" fill="#FF7A00"/>
</g>
<defs>
<clipPath id="clip0_2647_2001">
<rect width="65" height="65" rx="32.5" fill="white"/>
</clipPath>
</defs>
</svg>
