<svg width="61" height="65" viewBox="0 0 61 65" fill="none" xmlns="http://www.w3.org/2000/svg">
<path d="M0 10C0 4.47715 4.47715 0 10 0H50.6667C56.1895 0 60.6667 4.47715 60.6667 10V55C60.6667 60.5228 56.1895 65 50.6667 65H10C4.47716 65 0 60.5228 0 55V10Z" fill="#FFE4CC"/>
<path d="M43.875 40.6263C42.9107 40.6313 41.9656 40.8966 41.1396 41.3941L35.9761 36.2293C36.7118 35.1252 37.1044 33.8281 37.1044 32.5013C37.1044 31.1745 36.7118 29.8774 35.9761 28.7733L39.4252 25.3242C40.2977 25.7445 41.2908 25.8424 42.2286 25.6005C43.1663 25.3587 43.9882 24.7928 44.5487 24.003C45.1091 23.2132 45.3719 22.2505 45.2905 21.2855C45.2092 20.3204 44.7888 19.4154 44.104 18.7306C43.4193 18.0458 42.5142 17.6255 41.5492 17.5441C40.5842 17.4627 39.6215 17.7255 38.8317 18.286C38.0419 18.8464 37.4759 19.6683 37.2341 20.6061C36.9923 21.5438 37.0902 22.5369 37.5104 23.4094L34.0614 26.8585C32.9572 26.1228 31.6601 25.7303 30.3333 25.7303C29.0066 25.7303 27.7094 26.1228 26.6053 26.8585L21.4405 21.6937C21.9378 20.868 22.2031 19.9235 22.2083 18.9596C22.2083 17.8883 21.8907 16.8411 21.2955 15.9503C20.7003 15.0595 19.8543 14.3653 18.8645 13.9553C17.8748 13.5453 16.7857 13.438 15.7349 13.6471C14.6842 13.8561 13.719 14.3719 12.9615 15.1295C12.204 15.887 11.6881 16.8522 11.4791 17.9029C11.2701 18.9536 11.3773 20.0427 11.7873 21.0325C12.1973 22.0223 12.8916 22.8682 13.7823 23.4634C14.6731 24.0586 15.7204 24.3763 16.7917 24.3763C17.756 24.3713 18.701 24.106 19.5271 23.6085L24.6905 28.7733C23.9549 29.8774 23.5623 31.1745 23.5623 32.5013C23.5623 33.8281 23.9549 35.1252 24.6905 36.2293L19.5257 41.3941C18.7 40.8969 17.7555 40.6316 16.7917 40.6263C15.7204 40.6263 14.6731 40.944 13.7823 41.5392C12.8916 42.1344 12.1973 42.9803 11.7873 43.9701C11.3773 44.9599 11.2701 46.049 11.4791 47.0997C11.6881 48.1504 12.204 49.1156 12.9615 49.8731C13.719 50.6307 14.6842 51.1466 15.7349 51.3556C16.7857 51.5646 17.8748 51.4573 18.8645 51.0473C19.8543 50.6373 20.7003 49.9431 21.2955 49.0523C21.8907 48.1615 22.2083 47.1143 22.2083 46.043C22.2033 45.0787 21.9381 44.1336 21.4405 43.3076L26.6053 38.1441C27.3255 38.6241 28.1315 38.9607 28.9792 39.1354V43.5838C28.0756 43.9032 27.3141 44.5318 26.8293 45.3584C26.3444 46.185 26.1673 47.1564 26.3293 48.1009C26.4914 49.0455 26.9821 49.9023 27.7148 50.52C28.4475 51.1377 29.375 51.4765 30.3333 51.4765C31.2917 51.4765 32.2191 51.1377 32.9518 50.52C33.6845 49.9023 34.1753 49.0455 34.3373 48.1009C34.4994 47.1564 34.3223 46.185 33.8374 45.3584C33.3525 44.5318 32.591 43.9032 31.6875 43.5838V39.1354C32.5352 38.9607 33.3412 38.6241 34.0614 38.1441L39.2261 43.3089C38.7288 44.1346 38.4636 45.0791 38.4583 46.043C38.4583 47.1143 38.776 48.1615 39.3712 49.0523C39.9664 49.9431 40.8124 50.6373 41.8021 51.0473C42.7919 51.4573 43.881 51.5646 44.9317 51.3556C45.9825 51.1466 46.9476 50.6307 47.7052 49.8731C48.4627 49.1156 48.9786 48.1504 49.1876 47.0997C49.3966 46.049 49.2893 44.9599 48.8793 43.9701C48.4694 42.9803 47.7751 42.1344 46.8843 41.5392C45.9936 40.944 44.9463 40.6263 43.875 40.6263ZM30.3333 28.4388C31.1368 28.4388 31.9223 28.6771 32.5903 29.1235C33.2584 29.5699 33.7791 30.2043 34.0866 30.9467C34.3941 31.689 34.4745 32.5058 34.3178 33.2939C34.161 34.0819 33.7741 34.8058 33.206 35.3739C32.6378 35.9421 31.9139 36.329 31.1259 36.4857C30.3378 36.6425 29.521 36.562 28.7787 36.2546C28.0364 35.9471 27.4019 35.4264 26.9555 34.7583C26.5091 34.0902 26.2708 33.3048 26.2708 32.5013C26.2719 31.4242 26.7003 30.3915 27.4619 29.6299C28.2235 28.8682 29.2562 28.4399 30.3333 28.4388ZM14.0833 18.9596C14.0833 18.424 14.2422 17.9004 14.5398 17.455C14.8374 17.0096 15.2604 16.6625 15.7552 16.4575C16.2501 16.2525 16.7947 16.1988 17.32 16.3033C17.8454 16.4078 18.328 16.6658 18.7067 17.0446C19.0855 17.4233 19.3435 17.9059 19.448 18.4313C19.5525 18.9566 19.4988 19.5012 19.2938 19.9961C19.0889 20.491 18.7417 20.9139 18.2963 21.2115C17.851 21.5091 17.3273 21.668 16.7917 21.668C16.0736 21.6673 15.3851 21.3817 14.8774 20.8739C14.3696 20.3662 14.0841 19.6777 14.0833 18.9596ZM16.7917 48.7513C16.256 48.7513 15.7324 48.5925 15.287 48.2949C14.8416 47.9973 14.4945 47.5743 14.2895 47.0794C14.0845 46.5845 14.0309 46.04 14.1354 45.5146C14.2399 44.9892 14.4978 44.5067 14.8766 44.1279C15.2554 43.7491 15.7379 43.4912 16.2633 43.3867C16.7887 43.2822 17.3332 43.3358 17.8281 43.5408C18.323 43.7458 18.746 44.0929 19.0436 44.5383C19.3412 44.9837 19.5 45.5073 19.5 46.043C19.4993 46.761 19.2137 47.4495 18.706 47.9573C18.1982 48.465 17.5097 48.7506 16.7917 48.7513ZM43.875 48.7513C43.3393 48.7513 42.8157 48.5925 42.3703 48.2949C41.9249 47.9973 41.5778 47.5743 41.3728 47.0794C41.1678 46.5845 41.1142 46.04 41.2187 45.5146C41.3232 44.9892 41.5812 44.5067 41.9599 44.1279C42.3387 43.7491 42.8213 43.4912 43.3466 43.3867C43.872 43.2822 44.4165 43.3358 44.9114 43.5408C45.4063 43.7458 45.8293 44.0929 46.1269 44.5383C46.4245 44.9837 46.5833 45.5073 46.5833 46.043C46.5823 46.7609 46.2966 47.4492 45.7889 47.9569C45.2812 48.4645 44.593 48.7502 43.875 48.7513Z" fill="#FF9737"/>
</svg>
