<svg width="61" height="65" viewBox="0 0 61 65" fill="none" xmlns="http://www.w3.org/2000/svg">
<path d="M0 10C0 4.47715 4.47715 0 10 0H50.6667C56.1895 0 60.6667 4.47715 60.6667 10V55C60.6667 60.5228 56.1895 65 50.6667 65H10C4.47716 65 0 60.5228 0 55V10Z" fill="#FFE4CC"/>
<path d="M38.2051 36.112C38.3496 34.9203 38.4579 33.7286 38.4579 32.5009C38.4579 31.2731 38.3496 30.0814 38.2051 28.8898H44.3079C44.5968 30.0453 44.7773 31.255 44.7773 32.5009C44.7773 33.7467 44.5968 34.9564 44.3079 36.112M35.0093 46.1509C36.0926 44.1467 36.9232 41.98 37.501 39.7231H42.8273C41.0781 42.7353 38.3028 45.017 35.0093 46.1509ZM34.5579 36.112H26.1079C25.9273 34.9203 25.819 33.7286 25.819 32.5009C25.819 31.2731 25.9273 30.0634 26.1079 28.8898H34.5579C34.7204 30.0634 34.8468 31.2731 34.8468 32.5009C34.8468 33.7286 34.7204 34.9203 34.5579 36.112ZM30.3329 46.8731C28.8343 44.7064 27.6246 42.305 26.8843 39.7231H33.7815C33.0412 42.305 31.8315 44.7064 30.3329 46.8731ZM23.1107 25.2786H17.8385C19.5697 22.2583 22.3429 19.973 25.6385 18.8509C24.5551 20.855 23.7426 23.0217 23.1107 25.2786ZM17.8385 39.7231H23.1107C23.7426 41.98 24.5551 44.1467 25.6385 46.1509C22.3499 45.0164 19.5805 42.7342 17.8385 39.7231ZM16.3579 36.112C16.069 34.9564 15.8885 33.7467 15.8885 32.5009C15.8885 31.255 16.069 30.0453 16.3579 28.8898H22.4607C22.3162 30.0814 22.2079 31.2731 22.2079 32.5009C22.2079 33.7286 22.3162 34.9203 22.4607 36.112M30.3329 18.1106C31.8315 20.2773 33.0412 22.6967 33.7815 25.2786H26.8843C27.6246 22.6967 28.8343 20.2773 30.3329 18.1106ZM42.8273 25.2786H37.501C36.9359 23.0424 36.0991 20.8837 35.0093 18.8509C38.3315 19.9884 41.094 22.2814 42.8273 25.2786ZM30.3329 14.4453C20.3482 14.4453 12.2773 22.5703 12.2773 32.5009C12.2773 37.2895 14.1796 41.882 17.5657 45.2681C19.2423 46.9447 21.2327 48.2747 23.4233 49.182C25.6139 50.0894 27.9618 50.5564 30.3329 50.5564C35.1215 50.5564 39.714 48.6541 43.1001 45.2681C46.4862 41.882 48.3885 37.2895 48.3885 32.5009C48.3885 30.1298 47.9214 27.7819 47.0141 25.5913C46.1067 23.4007 44.7767 21.4103 43.1001 19.7337C41.4235 18.057 39.4331 16.7271 37.2425 15.8197C35.0519 14.9123 32.704 14.4453 30.3329 14.4453Z" fill="#FF9737"/>
</svg>
