<svg width="62" height="65" viewBox="0 0 62 65" fill="none" xmlns="http://www.w3.org/2000/svg">
<path d="M0.666016 10C0.666016 4.47715 5.14317 0 10.666 0H51.3327C56.8555 0 61.3327 4.47715 61.3327 10V55C61.3327 60.5228 56.8555 65 51.3327 65H10.666C5.14317 65 0.666016 60.5228 0.666016 55V10Z" fill="#FFE4CC"/>
<path d="M46.3461 30.6942H43.6378V23.472C43.6378 22.5143 43.2573 21.5958 42.5801 20.9186C41.9029 20.2413 40.9844 19.8609 40.0267 19.8609H32.8045V17.1526C32.8045 15.9554 32.3289 14.8073 31.4824 13.9608C30.6359 13.1142 29.4877 12.6387 28.2906 12.6387C27.0934 12.6387 25.9453 13.1142 25.0988 13.9608C24.2523 14.8073 23.7767 15.9554 23.7767 17.1526V19.8609H16.5545C15.5967 19.8609 14.6782 20.2413 14.001 20.9186C13.3238 21.5958 12.9434 22.5143 12.9434 23.472V30.3331H15.6517C18.36 30.3331 20.5267 32.4998 20.5267 35.2081C20.5267 37.9164 18.36 40.0831 15.6517 40.0831H12.9434V46.9442C12.9434 47.902 13.3238 48.8204 14.001 49.4977C14.6782 50.1749 15.5967 50.5553 16.5545 50.5553H23.4156V47.847C23.4156 45.1387 25.5822 42.972 28.2906 42.972C30.9989 42.972 33.1656 45.1387 33.1656 47.847V50.5553H40.0267C40.9844 50.5553 41.9029 50.1749 42.5801 49.4977C43.2573 48.8204 43.6378 47.902 43.6378 46.9442V39.722H46.3461C47.5433 39.722 48.6914 39.2464 49.5379 38.3999C50.3845 37.5534 50.86 36.4053 50.86 35.2081C50.86 34.011 50.3845 32.8628 49.5379 32.0163C48.6914 31.1698 47.5433 30.6942 46.3461 30.6942Z" fill="#FF9737"/>
</svg>
