<svg width="65" height="65" viewBox="0 0 65 65" fill="none" xmlns="http://www.w3.org/2000/svg">
<g clip-path="url(#clip0_2647_2012)">
<circle cx="32.5" cy="32.5" r="32" fill="white" stroke="#FF7A00"/>
<path d="M32.5 42.5C29.4062 42.5 26.7578 41.3984 24.5547 39.1953C22.3516 36.9922 21.25 34.3437 21.25 31.25C21.25 28.1562 22.3516 25.5078 24.5547 23.3047C26.7578 21.1016 29.4062 20 32.5 20C35.5937 20 38.2422 21.1016 40.4453 23.3047C42.6484 25.5078 43.75 28.1562 43.75 31.25C43.75 34.3437 42.6484 36.9922 40.4453 39.1953C38.2422 41.3984 35.5937 42.5 32.5 42.5ZM10 65V57.125C10 55.5312 10.4106 54.0659 11.2319 52.7291C12.0531 51.3922 13.1425 50.3731 14.5 49.6719C17.4062 48.2187 20.3594 47.1284 23.3594 46.4009C26.3594 45.6734 29.4062 45.3106 32.5 45.3125C35.5937 45.3125 38.6406 45.6762 41.6406 46.4037C44.6406 47.1312 47.5937 48.2206 50.5 49.6719C51.8594 50.375 52.9497 51.395 53.7709 52.7319C54.5922 54.0687 55.0019 55.5331 55 57.125V65H10Z" fill="#FF7A00"/>
</g>
<defs>
<clipPath id="clip0_2647_2012">
<rect width="65" height="65" rx="32.5" fill="white"/>
</clipPath>
</defs>
</svg>
