<svg width="65" height="65" viewBox="0 0 65 65" fill="none" xmlns="http://www.w3.org/2000/svg">
<g clip-path="url(#clip0_2647_2044)">
<circle cx="32.5" cy="32.5" r="32" fill="white" stroke="#FF7A00"/>
<circle cx="32.5" cy="32.5" r="19" stroke="#FF7A00"/>
<path d="M32.5 55C20.0733 55 10 44.9268 10 32.5C10 20.0733 20.0733 10 32.5 10C44.9268 10 55 20.0733 55 32.5C55 44.9268 44.9268 55 32.5 55ZM32.5 50.5C37.2739 50.5 41.8523 48.6036 45.2279 45.2279C48.6036 41.8523 50.5 37.2739 50.5 32.5C50.5 27.7261 48.6036 23.1477 45.2279 19.7721C41.8523 16.3964 37.2739 14.5 32.5 14.5C27.7261 14.5 23.1477 16.3964 19.7721 19.7721C16.3964 23.1477 14.5 27.7261 14.5 32.5C14.5 37.2739 16.3964 41.8523 19.7721 45.2279C23.1477 48.6036 27.7261 50.5 32.5 50.5ZM34.75 32.5H43.75V37H30.25V21.25H34.75V32.5Z" fill="#FF7A00"/>
</g>
<defs>
<clipPath id="clip0_2647_2044">
<rect width="65" height="65" rx="32.5" fill="white"/>
</clipPath>
</defs>
</svg>
