<svg width="65" height="65" viewBox="0 0 65 65" fill="none" xmlns="http://www.w3.org/2000/svg">
<g clip-path="url(#clip0_2647_898)">
<circle cx="32.5" cy="32.5" r="32" fill="white" stroke="#FF7A00"/>
<path d="M28 37H37V32.5H28V37ZM28 30.25H46V25.75H28V30.25ZM28 23.5H46V19H28V23.5ZM23.5 46C22.2625 46 21.2028 45.559 20.3208 44.677C19.4388 43.795 18.9985 42.736 19 41.5V14.5C19 13.2625 19.441 12.2028 20.323 11.3208C21.205 10.4388 22.264 9.9985 23.5 10H50.5C51.7375 10 52.7972 10.441 53.6792 11.323C54.5612 12.205 55.0015 13.264 55 14.5V41.5C55 42.7375 54.559 43.7972 53.677 44.6792C52.795 45.5612 51.736 46.0015 50.5 46H23.5ZM23.5 41.5H50.5V14.5H23.5V41.5ZM14.5 55C13.2625 55 12.2028 54.559 11.3208 53.677C10.4388 52.795 9.9985 51.736 10 50.5V19H14.5V50.5H46V55H14.5Z" fill="#FF7A00"/>
</g>
<defs>
<clipPath id="clip0_2647_898">
<rect width="65" height="65" rx="32.5" fill="white"/>
</clipPath>
</defs>
</svg>
