<svg width="65" height="65" viewBox="0 0 65 65" fill="none" xmlns="http://www.w3.org/2000/svg">
<g clip-path="url(#clip0_2647_1664)">
<circle cx="32.5" cy="32.5" r="32" fill="white" stroke="#FF7A00"/>
<path d="M16.3929 21.9813L14.7616 20.35C14.2741 19.9 14.0206 19.375 14.0011 18.775C13.9816 18.175 14.2164 17.65 14.7054 17.2C15.1554 16.75 15.6894 16.5153 16.3074 16.4958C16.9254 16.4763 17.4601 16.6923 17.9116 17.1438L19.5429 18.775C19.9554 19.1875 20.1714 19.7035 20.1909 20.323C20.2104 20.9425 19.9944 21.4765 19.5429 21.925C19.1304 22.3375 18.6151 22.5535 17.9971 22.573C17.3791 22.5925 16.8444 22.3953 16.3929 21.9813ZM32.2554 16.75C31.6179 16.75 31.0831 16.534 30.6511 16.102C30.2191 15.67 30.0039 15.136 30.0054 14.5V12.25C30.0054 11.6125 30.2214 11.0778 30.6534 10.6458C31.0854 10.2138 31.6194 9.99851 32.2554 10C32.8929 10 33.4276 10.216 33.8596 10.648C34.2916 11.08 34.5069 11.614 34.5054 12.25V14.5C34.5054 15.1375 34.2894 15.6723 33.8574 16.1043C33.4254 16.5363 32.8914 16.7515 32.2554 16.75ZM45.0804 21.9813C44.6304 21.5313 44.4054 20.9875 44.4054 20.35C44.4054 19.7125 44.6304 19.1688 45.0804 18.7188L46.6554 17.1438C47.0679 16.7313 47.5839 16.525 48.2034 16.525C48.8229 16.525 49.3569 16.75 49.8054 17.2C50.2179 17.6125 50.4241 18.1375 50.4241 18.775C50.4241 19.4125 50.2179 19.9375 49.8054 20.35L48.2304 21.925C47.7804 22.375 47.2554 22.6098 46.6554 22.6293C46.0554 22.6488 45.5304 22.4328 45.0804 21.9813ZM30.0054 55C28.7679 55 27.7081 54.559 26.8261 53.677C25.9441 52.795 25.5039 51.736 25.5054 50.5V43.75L20.0491 38.2937C19.6366 37.8812 19.3179 37.4028 19.0929 36.8583C18.8679 36.3138 18.7554 35.7423 18.7554 35.1438V28C18.7554 27.3625 18.9714 26.8278 19.4034 26.3958C19.8354 25.9638 20.3694 25.7485 21.0054 25.75H43.5054C44.1429 25.75 44.6776 25.966 45.1096 26.398C45.5416 26.83 45.7569 27.364 45.7554 28V35.1438C45.7554 35.7438 45.6429 36.316 45.4179 36.8605C45.1929 37.405 44.8741 37.8827 44.4616 38.2937L39.0054 43.75V50.5C39.0054 51.7375 38.5644 52.7972 37.6824 53.6792C36.8004 54.5612 35.7414 55.0015 34.5054 55H30.0054Z" fill="#FF7A00"/>
</g>
<defs>
<clipPath id="clip0_2647_1664">
<rect width="65" height="65" rx="32.5" fill="white"/>
</clipPath>
</defs>
</svg>
