<svg width="62" height="65" viewBox="0 0 62 65" fill="none" xmlns="http://www.w3.org/2000/svg">
<rect x="0.666016" width="60.6667" height="65" rx="10" fill="#FFE4CC"/>
<path d="M49.9583 43.3333V40.625H47.1132C46.9386 39.7773 46.602 38.9713 46.122 38.2511L48.1397 36.2334L46.2249 34.3186L44.2072 36.3364C43.487 35.8563 42.681 35.5197 41.8333 35.3451V32.5H39.125V35.3451C38.2773 35.5197 37.4713 35.8563 36.7511 36.3364L34.7334 34.3186L32.8186 36.2334L34.8364 38.2511C34.3563 38.9713 34.0197 39.7773 33.8451 40.625H31V43.3333H33.8451C34.0197 44.181 34.3563 44.987 34.8364 45.7072L32.8186 47.7249L34.7334 49.6397L36.7511 47.622C37.4713 48.102 38.2773 48.4386 39.125 48.6132V51.4583H41.8333V48.6132C42.681 48.4386 43.487 48.102 44.2072 47.622L46.2249 49.6397L48.1397 47.7249L46.122 45.7072C46.602 44.987 46.9386 44.181 47.1132 43.3333H49.9583ZM40.4792 46.0417C39.6757 46.0417 38.8902 45.8034 38.2222 45.357C37.5541 44.9106 37.0334 44.2761 36.7259 43.5338C36.4184 42.7915 36.338 41.9747 36.4947 41.1866C36.6515 40.3986 37.0384 39.6747 37.6065 39.1065C38.1747 38.5384 38.8986 38.1515 39.6866 37.9947C40.4747 37.838 41.2915 37.9184 42.0338 38.2259C42.7761 38.5334 43.4106 39.0541 43.857 39.7222C44.3034 40.3902 44.5417 41.1757 44.5417 41.9792C44.5406 43.0563 44.1122 44.089 43.3506 44.8506C42.589 45.6122 41.5563 46.0406 40.4792 46.0417Z" fill="#FF9737"/>
<path d="M47.2493 16.25H14.7493C14.0313 16.2507 13.3428 16.5363 12.8351 17.044C12.3273 17.5518 12.0417 18.2403 12.041 18.9583V46.0417C12.0417 46.7597 12.3273 47.4482 12.8351 47.956C13.3428 48.4637 14.0313 48.7493 14.7493 48.75H28.291V46.0417H14.7493V27.0833H47.2493V31.1458H49.9577V18.9583C49.957 18.2403 49.6714 17.5518 49.1636 17.044C48.6559 16.5363 47.9674 16.2507 47.2493 16.25ZM47.2493 24.375H14.7493V18.9583H47.2493V24.375Z" fill="#FF9737"/>
<path d="M36.4167 23.0208C37.1646 23.0208 37.7708 22.4146 37.7708 21.6667C37.7708 20.9188 37.1646 20.3125 36.4167 20.3125C35.6688 20.3125 35.0625 20.9188 35.0625 21.6667C35.0625 22.4146 35.6688 23.0208 36.4167 23.0208Z" fill="#FF9737"/>
<path d="M40.4792 23.0208C41.2271 23.0208 41.8333 22.4146 41.8333 21.6667C41.8333 20.9188 41.2271 20.3125 40.4792 20.3125C39.7313 20.3125 39.125 20.9188 39.125 21.6667C39.125 22.4146 39.7313 23.0208 40.4792 23.0208Z" fill="#FF9737"/>
<path d="M44.5417 23.0208C45.2896 23.0208 45.8958 22.4146 45.8958 21.6667C45.8958 20.9188 45.2896 20.3125 44.5417 20.3125C43.7938 20.3125 43.1875 20.9188 43.1875 21.6667C43.1875 22.4146 43.7938 23.0208 44.5417 23.0208Z" fill="#FF9737"/>
</svg>
