<svg width="61" height="65" viewBox="0 0 61 65" fill="none" xmlns="http://www.w3.org/2000/svg">
<rect width="60.6667" height="65" rx="10" fill="#FFE4CC"/>
<path d="M21.5788 21.6673C22.3267 21.6673 22.9329 21.061 22.9329 20.3132C22.9329 19.5653 22.3267 18.959 21.5788 18.959C20.8309 18.959 20.2246 19.5653 20.2246 20.3132C20.2246 21.061 20.8309 21.6673 21.5788 21.6673Z" fill="#FF9737"/>
<path d="M45.9538 40.6263V35.2096C45.9538 34.4913 45.6684 33.8025 45.1605 33.2946C44.6526 32.7866 43.9637 32.5013 43.2454 32.5013H32.4121V27.0846H44.5996C45.3179 27.0846 46.0068 26.7993 46.5147 26.2914C47.0226 25.7835 47.3079 25.0946 47.3079 24.3763V16.2513C47.3079 15.533 47.0226 14.8441 46.5147 14.3362C46.0068 13.8283 45.3179 13.543 44.5996 13.543H17.5163C16.798 13.543 16.1091 13.8283 15.6012 14.3362C15.0933 14.8441 14.8079 15.533 14.8079 16.2513V24.3763C14.8079 25.0946 15.0933 25.7835 15.6012 26.2914C16.1091 26.7993 16.798 27.0846 17.5163 27.0846H29.7038V32.5013H18.8704C18.1521 32.5013 17.4633 32.7866 16.9554 33.2946C16.4475 33.8025 16.1621 34.4913 16.1621 35.2096V40.6263H14.8079C14.0896 40.6263 13.4008 40.9116 12.8929 41.4196C12.385 41.9275 12.0996 42.6163 12.0996 43.3346V48.7513C12.0996 49.4696 12.385 50.1585 12.8929 50.6664C13.4008 51.1743 14.0896 51.4596 14.8079 51.4596H20.2246C20.9429 51.4596 21.6318 51.1743 22.1397 50.6664C22.6476 50.1585 22.9329 49.4696 22.9329 48.7513V43.3346C22.9329 42.6163 22.6476 41.9275 22.1397 41.4196C21.6318 40.9116 20.9429 40.6263 20.2246 40.6263H18.8704V35.2096H29.7038V40.6263H28.3496C27.6313 40.6263 26.9424 40.9116 26.4345 41.4196C25.9266 41.9275 25.6413 42.6163 25.6413 43.3346V48.7513C25.6413 49.4696 25.9266 50.1585 26.4345 50.6664C26.9424 51.1743 27.6313 51.4596 28.3496 51.4596H33.7663C34.4846 51.4596 35.1734 51.1743 35.6814 50.6664C36.1893 50.1585 36.4746 49.4696 36.4746 48.7513V43.3346C36.4746 42.6163 36.1893 41.9275 35.6814 41.4196C35.1734 40.9116 34.4846 40.6263 33.7663 40.6263H32.4121V35.2096H43.2454V40.6263H41.8913C41.173 40.6263 40.4841 40.9116 39.9762 41.4196C39.4683 41.9275 39.1829 42.6163 39.1829 43.3346V48.7513C39.1829 49.4696 39.4683 50.1585 39.9762 50.6664C40.4841 51.1743 41.173 51.4596 41.8913 51.4596H47.3079C48.0262 51.4596 48.7151 51.1743 49.223 50.6664C49.7309 50.1585 50.0163 49.4696 50.0163 48.7513V43.3346C50.0163 42.6163 49.7309 41.9275 49.223 41.4196C48.7151 40.9116 48.0262 40.6263 47.3079 40.6263H45.9538ZM20.2246 48.7513H14.8079V43.3346H20.2246V48.7513ZM33.7663 43.3346V48.7513H28.3496V43.3346H33.7663ZM17.5163 24.3763V16.2513H44.5996V24.3763H17.5163ZM47.3079 48.7513H41.8913V43.3346H47.3079V48.7513Z" fill="#FF9737"/>
</svg>
