<svg width="25" height="25" viewBox="0 0 25 25" fill="none" xmlns="http://www.w3.org/2000/svg">
<path d="M19.7917 19.791H5.20833V8.33268H19.7917M16.6667 1.04102V3.12435H8.33333V1.04102H6.25V3.12435H5.20833C4.05208 3.12435 3.125 4.05143 3.125 5.20768V19.791C3.125 20.3436 3.34449 20.8735 3.73519 21.2642C4.12589 21.6549 4.6558 21.8744 5.20833 21.8744H19.7917C20.3442 21.8744 20.8741 21.6549 21.2648 21.2642C21.6555 20.8735 21.875 20.3436 21.875 19.791V5.20768C21.875 4.65515 21.6555 4.12524 21.2648 3.73454C20.8741 3.34384 20.3442 3.12435 19.7917 3.12435H18.75V1.04102M17.7083 12.4993H12.5V17.7077H17.7083V12.4993Z" fill="black"/>
</svg>
