<svg width="24" height="24" viewBox="0 0 24 24" fill="none" xmlns="http://www.w3.org/2000/svg">
<path d="M3.49993 8.00081C3.50013 7.05272 3.7454 6.12079 4.21195 5.29544C4.67849 4.47009 5.35047 3.77936 6.16267 3.29027C6.97486 2.80119 7.89969 2.53036 8.84741 2.50407C9.79514 2.47778 10.7336 2.69692 11.5716 3.14023C12.4097 3.58353 13.1189 4.23595 13.6305 5.03416C14.1421 5.83238 14.4386 6.74928 14.4914 7.6959C14.5442 8.64252 14.3513 9.5867 13.9316 10.4368C13.5119 11.2869 12.8795 12.0141 12.0959 12.5478C13.7834 13.1667 15.2471 14.2765 16.2986 15.7343C17.35 17.1921 17.9412 18.9312 17.9959 20.7278C17.9936 20.9215 17.9165 21.1068 17.7808 21.245C17.645 21.3832 17.4611 21.4636 17.2675 21.4694C17.0739 21.4753 16.8855 21.406 16.7417 21.2762C16.5979 21.1464 16.5099 20.966 16.4959 20.7728C16.4364 18.8243 15.6205 16.9755 14.2211 15.6182C12.8217 14.261 10.9489 13.5019 8.99943 13.5019C7.04997 13.5019 5.17712 14.261 3.77776 15.6182C2.37839 16.9755 1.56248 18.8243 1.50293 20.7728C1.49292 20.9686 1.40661 21.1528 1.26249 21.2857C1.11837 21.4187 0.927906 21.4899 0.731901 21.4842C0.535896 21.4784 0.34994 21.3961 0.213869 21.255C0.0777983 21.1138 0.00243635 20.9249 0.00392798 20.7288C0.0584793 18.932 0.649535 17.1927 1.70101 15.7347C2.75249 14.2767 4.21627 13.1668 5.90393 12.5478C5.16276 12.0434 4.55622 11.3654 4.1372 10.5729C3.71818 9.78033 3.4994 8.89731 3.49993 8.00081ZM8.99993 4.00081C7.93906 4.00081 6.92165 4.42223 6.1715 5.17238C5.42136 5.92253 4.99993 6.93994 4.99993 8.00081C4.99993 9.06167 5.42136 10.0791 6.1715 10.8292C6.92165 11.5794 7.93906 12.0008 8.99993 12.0008C10.0608 12.0008 11.0782 11.5794 11.8284 10.8292C12.5785 10.0791 12.9999 9.06167 12.9999 8.00081C12.9999 6.93994 12.5785 5.92253 11.8284 5.17238C11.0782 4.42223 10.0608 4.00081 8.99993 4.00081ZM17.2899 8.00081C17.1419 8.00081 16.9979 8.01081 16.8559 8.03081C16.7568 8.04856 16.6551 8.04616 16.5569 8.02375C16.4587 8.00135 16.366 7.95939 16.2844 7.90039C16.2028 7.84139 16.1339 7.76656 16.0818 7.68035C16.0297 7.59414 15.9955 7.49832 15.9813 7.39861C15.967 7.29891 15.973 7.19735 15.9989 7.10001C16.0247 7.00267 16.0699 6.91153 16.1318 6.83203C16.1936 6.75254 16.2708 6.68631 16.3588 6.63731C16.4468 6.5883 16.5438 6.55752 16.6439 6.54681C17.6385 6.40301 18.6527 6.594 19.5268 7.08973C20.4009 7.58546 21.0854 8.35777 21.4725 9.28513C21.8596 10.2125 21.9274 11.2423 21.6652 12.2123C21.4029 13.1824 20.8256 14.0378 20.0239 14.6438C21.2023 15.1714 22.2028 16.0288 22.9048 17.1124C23.6068 18.1961 23.9802 19.4597 23.9799 20.7508C23.9799 20.9497 23.9009 21.1405 23.7603 21.2811C23.6196 21.4218 23.4288 21.5008 23.2299 21.5008C23.031 21.5008 22.8403 21.4218 22.6996 21.2811C22.5589 21.1405 22.4799 20.9497 22.4799 20.7508C22.4798 19.635 22.1203 18.5488 21.4546 17.6533C20.7889 16.7578 19.8524 16.1005 18.7839 15.7788L18.2499 15.6188V13.9428L18.6599 13.7338C19.2677 13.426 19.754 12.9223 20.0402 12.304C20.3265 11.6858 20.3961 10.9892 20.2378 10.3266C20.0794 9.66394 19.7024 9.07402 19.1675 8.65203C18.6327 8.23005 17.9712 8.00063 17.2899 8.00081Z" fill="black"/>
</svg>
