<svg width="20" height="28" viewBox="0 0 20 28" fill="none" xmlns="http://www.w3.org/2000/svg">
<path d="M6.18145 13.9663C5.72416 13.5952 5.48519 13.0621 5.17923 12.585C4.79371 11.9791 4.43048 11.3583 4.09764 10.7241C3.78961 10.1436 3.52026 9.53924 3.26252 8.93504C3.17581 8.73518 3.08321 8.62586 2.86633 8.59848C2.31546 8.527 1.82714 8.30071 1.37016 7.99119C0.9431 7.703 0.683602 7.3114 0.594046 6.81175C0.536781 6.49844 0.497019 6.17956 0.458845 5.91415C0.882915 5.65974 1.25081 5.43476 1.61982 5.21329C3.61573 4.0348 5.76374 3.20114 7.95216 2.47027C8.16921 2.40123 8.34201 2.42335 8.52833 2.56068C8.78021 2.74655 8.90335 3.00036 9.02506 3.27389C9.21996 3.71689 9.40196 4.16784 9.62614 4.59382C9.92509 5.15792 9.88799 5.6593 9.45627 6.13203C9.29937 6.3053 9.14596 6.47746 8.95835 6.68748C9.88928 8.01428 10.838 9.31228 11.4843 10.8106C11.7368 10.7804 11.9543 10.7613 12.1731 10.7341C13.6105 10.5505 14.8443 10.9753 15.8713 11.9863C16.0857 12.1995 16.2492 12.4713 16.4 12.7394C16.6404 13.1679 16.5408 13.4849 16.1203 13.7382C15.4185 14.1619 14.6927 14.5585 14.0137 15.0174C13.4555 15.3954 12.9463 15.8427 12.4212 16.2642C12.3448 16.327 12.2821 16.4086 12.2279 16.4683C12.2306 16.5253 12.2231 16.5623 12.2368 16.5811C13.4508 18.1918 14.3648 19.9866 15.3258 21.7471C15.6532 22.3523 15.9057 23.0005 16.1724 23.6327C16.2298 23.7648 16.2089 23.9295 16.2264 24.0936C15.9968 24.0625 15.8167 23.981 15.6721 24.0232C15.4108 24.0986 15.2731 23.9689 15.157 23.7977C14.8132 23.2864 14.4623 22.7774 14.1478 22.2491C13.5087 21.161 12.8988 20.0559 12.2632 18.9666C12.1259 18.7289 11.9359 18.5195 11.7693 18.2988C11.6632 18.1591 11.5512 18.0251 11.458 17.8774C11.3647 17.7298 11.2914 17.5719 11.1781 17.3612C11.0159 17.4938 10.881 17.5907 10.7563 17.7074C9.79734 18.583 8.77463 19.3671 7.62193 19.9728C7.40075 20.0894 7.1829 20.2166 6.95392 20.3087C6.76584 20.3839 6.5628 20.4485 6.3639 20.4655C5.77659 20.5097 5.37864 20.2161 5.32394 19.6322C5.26749 19.0063 5.24955 18.3683 5.30575 17.7452C5.4075 16.5987 5.69 15.4873 6.1819 14.4403C6.26561 14.2672 6.30491 14.112 6.17349 13.9534L6.15281 13.9368L6.18033 13.9628L6.18145 13.9663ZM6.06058 15.6585C5.89827 15.7178 5.90256 15.8283 5.96349 15.9592C5.9401 15.9705 5.90049 15.9793 5.89555 16.0001C5.71921 16.6576 5.54175 17.3116 5.57528 17.9986C5.54185 18.2329 5.50493 18.4682 5.4715 18.7024C5.50061 18.8666 5.53083 19.0344 5.55994 19.1986C5.58094 19.1919 5.60195 19.1852 5.62295 19.1785L5.47039 18.6989C5.69173 18.4859 5.59993 18.2337 5.56033 17.988C5.69053 17.3066 5.82184 16.6288 5.94854 15.9486C5.97894 15.8502 6.01172 15.7473 6.04101 15.6454C6.05995 15.5353 6.07539 15.4263 6.09433 15.3162C6.15194 15.1823 6.20716 15.0529 6.26477 14.9189C6.31362 14.8301 6.35786 14.739 6.40672 14.6502C6.37314 14.6416 6.34307 14.6319 6.30839 14.6198L6.2775 14.9226C6.21989 15.0566 6.16467 15.1859 6.10706 15.3199C6.09162 15.4289 6.07268 15.539 6.05835 15.6515L6.06058 15.6585ZM6.83421 15.8364C6.84423 15.868 6.86237 15.9007 6.87239 15.9322C6.85632 16.0029 6.83563 16.0711 6.81955 16.1418L6.82687 16.1163L6.83132 16.1303C6.77276 16.334 6.71308 16.5342 6.65801 16.7367L6.66978 16.7253C6.60738 17.2077 6.54387 17.6867 6.48146 18.1691L6.48974 18.1588C6.48607 18.2563 6.48129 18.3504 6.47763 18.4479L6.4859 18.4376C6.44944 18.8077 6.39087 19.181 6.65674 19.532C6.78547 19.4641 6.89638 19.4249 6.98676 19.3576C7.55023 18.9355 8.132 18.5346 8.6646 18.076C9.46294 17.3864 10.2282 16.6534 11.0071 15.9392C11.8308 15.1837 12.6944 14.4811 13.6356 13.8771C13.9685 13.6633 14.3082 13.4588 14.6479 13.2544C14.7991 13.16 14.8959 13.0521 14.8149 12.8582C14.5282 12.163 14.0855 11.6561 13.2839 11.5719C12.8767 11.528 12.4648 11.4933 12.0539 11.4621C11.8055 11.4447 11.522 11.3653 11.3151 11.4542C10.9832 11.5984 10.7986 11.4181 10.6408 11.237C10.3172 10.8619 9.98557 10.474 9.74755 10.0408C9.14916 8.94748 8.59995 7.82692 8.03434 6.71543C7.87826 6.40657 7.73268 6.09437 7.53842 5.68972C7.8304 5.74718 8.03551 5.78601 8.26257 5.83328C8.41884 5.62166 8.57972 5.41243 8.73026 5.19493C8.89735 4.95673 8.90771 4.71058 8.77072 4.44961C8.64964 4.21443 8.53907 3.97589 8.43788 3.73052C8.25699 3.28307 8.24569 3.25968 7.79967 3.42085C7.01614 3.70865 6.23708 4.01045 5.46819 4.33215C4.56023 4.71351 3.67152 5.13115 2.76817 5.51489C2.22477 5.74558 1.72845 6.10007 1.05059 6.13838C1.16196 6.48845 1.25392 6.81386 1.36926 7.12797C1.41412 7.24476 1.49256 7.37016 1.59264 7.4424C2.05169 7.77053 2.57152 7.902 3.13513 7.80751C3.61027 7.72575 3.92581 7.67549 4.23589 8.3594C4.73865 9.47932 5.28118 10.5789 5.98284 11.597C6.33256 12.1025 6.61783 12.6478 6.93938 13.1739C7.05982 13.3707 7.186 13.5735 7.3346 13.7498C7.5346 13.9907 7.54192 14.05 7.39058 14.3256C7.26661 14.554 7.14837 14.7882 7.0602 15.0321C6.96599 15.2934 6.90646 15.5667 6.83309 15.8329L6.83421 15.8364ZM6.55106 3.22824C6.55106 3.22824 6.54534 3.22235 6.54073 3.21996L6.13464 3.34915C6.13464 3.34915 6.13687 3.35615 6.13798 3.35965L6.55106 3.22824ZM4.921 3.82388C4.921 3.82388 4.92323 3.83088 4.92434 3.83439L5.25691 3.72859C5.25691 3.72859 5.25469 3.72159 5.25357 3.71809L4.921 3.82388ZM7.65411 2.7694C7.65411 2.7694 7.66668 2.78467 7.67591 2.78944L7.85445 2.73265C7.85445 2.73265 7.84888 2.71515 7.84665 2.70815L7.65411 2.7694ZM4.32556 4.12124C4.32556 4.12124 4.31999 4.10375 4.31777 4.09675L4.14018 4.16865C4.14018 4.16865 4.14241 4.17566 4.14464 4.18266L4.32668 4.12475L4.32556 4.12124ZM3.62525 4.4404C3.62525 4.4404 3.6208 4.4264 3.61857 4.41939L3.44354 4.47508C3.44354 4.47508 3.44799 4.48908 3.45022 4.49608L3.62525 4.4404ZM2.06854 5.19391C2.06854 5.19391 2.04738 5.2122 2.0391 5.22254C2.04961 5.2192 2.0636 5.21475 2.07411 5.2114C2.08461 5.20806 2.094 5.20122 2.10339 5.19438C2.09178 5.19422 2.08016 5.19407 2.06854 5.19391ZM2.49547 4.98485L2.48179 4.96607C2.45729 4.97386 2.43389 4.98516 2.4105 4.99645C2.41273 5.00345 2.42418 5.01523 2.42418 5.01523C2.44869 5.00743 2.47208 4.99614 2.49547 4.98485ZM3.07787 4.70706C3.04891 4.70085 3.03395 4.69019 3.02807 4.69591C3.00579 4.71071 2.98112 4.73012 2.95885 4.74492L3.07787 4.70706ZM1.2325 5.66804C1.2325 5.66804 1.25127 5.65435 1.26066 5.64751C1.25143 5.64274 1.23759 5.63557 1.23059 5.6378C1.22009 5.64114 1.21182 5.65149 1.20131 5.65483C1.21054 5.6596 1.22215 5.65976 1.23138 5.66453L1.2325 5.66804ZM1.71146 5.39231C1.71146 5.39231 1.69046 5.39899 1.67646 5.40344C1.68918 5.4071 1.70542 5.40965 1.71815 5.41331C1.71592 5.40631 1.71369 5.39931 1.71146 5.39231ZM0.974711 5.82714L0.949256 5.81982L0.948935 5.84305L0.974711 5.82714Z" fill="#FF7A00"/>
<path d="M6.86739 15.938C6.85626 15.903 6.84512 15.868 6.83398 15.833C6.84417 15.8529 6.86247 15.8741 6.86915 15.8951C6.87249 15.9056 6.86994 15.9218 6.86978 15.9334L6.86739 15.938Z" fill="#FF7A00"/>
<path d="M6.65464 16.7377C6.65464 16.7377 6.66314 16.727 6.66674 16.7259L6.65464 16.7377Z" fill="#FF7A00"/>
<path d="M6.47856 18.1701L6.47467 18.1836L6.48363 18.1603L6.47856 18.1701Z" fill="#FF7A00"/>
<path d="M6.47465 18.4494L6.47076 18.4629L6.47973 18.4396L6.47465 18.4494Z" fill="#FF7A00"/>
</svg>
