<svg width="20" height="27" viewBox="0 0 20 27" fill="none" xmlns="http://www.w3.org/2000/svg">
<path d="M6.18145 13.0004C5.72416 12.6294 5.48519 12.0963 5.17923 11.6192C4.79371 11.0133 4.43048 10.3925 4.09764 9.75825C3.78961 9.17777 3.52026 8.57342 3.26252 7.96922C3.17581 7.76936 3.08321 7.66004 2.86633 7.63266C2.31546 7.56118 1.82714 7.33489 1.37016 7.02537C0.9431 6.73718 0.683602 6.34558 0.594046 5.84593C0.536781 5.53262 0.497019 5.21374 0.458845 4.94833C0.882915 4.69392 1.25081 4.46894 1.61982 4.24747C3.61573 3.06898 5.76374 2.23532 7.95216 1.50445C8.16921 1.43541 8.34201 1.45753 8.52833 1.59486C8.78021 1.78073 8.90335 2.03454 9.02506 2.30807C9.21996 2.75107 9.40196 3.20202 9.62614 3.628C9.92509 4.1921 9.88799 4.69348 9.45627 5.1662C9.29937 5.33948 9.14596 5.51164 8.95835 5.72166C9.88928 7.04846 10.838 8.34645 11.4843 9.84477C11.7368 9.81455 11.9543 9.79547 12.1731 9.76827C13.6105 9.58473 14.8443 10.0095 15.8713 11.0204C16.0857 11.2337 16.2492 11.5055 16.4 11.7736C16.6404 12.2021 16.5408 12.5191 16.1203 12.7724C15.4185 13.1961 14.6927 13.5927 14.0137 14.0516C13.4555 14.4296 12.9463 14.8769 12.4212 15.2983C12.3448 15.3612 12.2821 15.4428 12.2279 15.5025C12.2306 15.5594 12.2231 15.5965 12.2368 15.6153C13.4508 17.226 14.3648 19.0207 15.3258 20.7813C15.6532 21.3865 15.9057 22.0347 16.1724 22.6669C16.2298 22.799 16.2089 22.9637 16.2264 23.1277C15.9968 23.0967 15.8167 23.0152 15.6721 23.0574C15.4108 23.1328 15.2731 23.0031 15.157 22.8319C14.8132 22.3206 14.4623 21.8116 14.1478 21.2833C13.5087 20.1952 12.8988 19.09 12.2632 18.0008C12.1259 17.7631 11.9359 17.5537 11.7693 17.333C11.6632 17.1933 11.5512 17.0593 11.458 16.9116C11.3647 16.7639 11.2914 16.6061 11.1781 16.3954C11.0159 16.5279 10.881 16.6248 10.7563 16.7416C9.79734 17.6172 8.77463 18.4013 7.62193 19.007C7.40075 19.1236 7.1829 19.2507 6.95392 19.3429C6.76584 19.4181 6.5628 19.4827 6.3639 19.4997C5.77659 19.5439 5.37864 19.2503 5.32394 18.6663C5.26749 18.0405 5.24955 17.4025 5.30575 16.7793C5.4075 15.6329 5.69 14.5214 6.1819 13.4745C6.26561 13.3014 6.30491 13.1462 6.17349 12.9876L6.15281 12.971L6.18033 12.9969L6.18145 13.0004ZM6.06058 14.6927C5.89827 14.752 5.90256 14.8624 5.96349 14.9934C5.9401 15.0047 5.90049 15.0135 5.89555 15.0343C5.71921 15.6918 5.54175 16.3457 5.57528 17.0328C5.54185 17.2671 5.50493 17.5024 5.4715 17.7366C5.50061 17.9008 5.53083 18.0685 5.55994 18.2328C5.58094 18.2261 5.60195 18.2194 5.62295 18.2127L5.47039 17.7331C5.69173 17.5201 5.59993 17.2679 5.56033 17.0222C5.69053 16.3408 5.82184 15.663 5.94854 14.9828C5.97894 14.8844 6.01172 14.7815 6.04101 14.6796C6.05995 14.5695 6.07539 14.4605 6.09433 14.3504C6.15194 14.2164 6.20716 14.0871 6.26477 13.9531C6.31362 13.8643 6.35786 13.7731 6.40672 13.6844C6.37314 13.6758 6.34307 13.6661 6.30839 13.654L6.2775 13.9568C6.21989 14.0907 6.16467 14.2201 6.10706 14.3541C6.09162 14.4631 6.07268 14.5732 6.05835 14.6857L6.06058 14.6927ZM6.83421 14.8706C6.84423 14.9021 6.86237 14.9349 6.87239 14.9664C6.85632 15.0371 6.83563 15.1053 6.81955 15.176L6.82687 15.1505L6.83132 15.1645C6.77276 15.3682 6.71308 15.5684 6.65801 15.7709L6.66978 15.7595C6.60738 16.2419 6.54387 16.7208 6.48146 17.2033L6.48974 17.193C6.48607 17.2905 6.48129 17.3845 6.47763 17.4821L6.4859 17.4717C6.44944 17.8418 6.39087 18.2151 6.65674 18.5662C6.78547 18.4982 6.89638 18.4591 6.98676 18.3918C7.55023 17.9697 8.132 17.5687 8.6646 17.1102C9.46294 16.4206 10.2282 15.6876 11.0071 14.9733C11.8308 14.2179 12.6944 13.5153 13.6356 12.9113C13.9685 12.6975 14.3082 12.493 14.6479 12.2886C14.7991 12.1942 14.8959 12.0863 14.8149 11.8924C14.5282 11.1971 14.0855 10.6903 13.2839 10.6061C12.8767 10.5622 12.4648 10.5274 12.0539 10.4962C11.8055 10.4789 11.522 10.3995 11.3151 10.4884C10.9832 10.6325 10.7986 10.4522 10.6408 10.2712C10.3172 9.8961 9.98557 9.50814 9.74755 9.07501C9.14916 7.98166 8.59995 6.8611 8.03434 5.74961C7.87826 5.44075 7.73268 5.12855 7.53842 4.7239C7.8304 4.78136 8.03551 4.82019 8.26257 4.86746C8.41884 4.65584 8.57972 4.44661 8.73026 4.22911C8.89735 3.99091 8.90771 3.74476 8.77072 3.48379C8.64964 3.24861 8.53907 3.01007 8.43788 2.7647C8.25699 2.31725 8.24569 2.29386 7.79967 2.45502C7.01614 2.74283 6.23708 3.04463 5.46819 3.36633C4.56023 3.74769 3.67152 4.16533 2.76817 4.54907C2.22477 4.77976 1.72845 5.13425 1.05059 5.17256C1.16196 5.52263 1.25392 5.84804 1.36926 6.16215C1.41412 6.27894 1.49256 6.40434 1.59264 6.47658C2.05169 6.80471 2.57152 6.93618 3.13513 6.84169C3.61027 6.75993 3.92581 6.70967 4.23589 7.39358C4.73865 8.5135 5.28118 9.61305 5.98284 10.6311C6.33256 11.1367 6.61783 11.682 6.93938 12.2081C7.05982 12.4049 7.186 12.6076 7.3346 12.784C7.5346 13.0249 7.54192 13.0842 7.39058 13.3598C7.26661 13.5881 7.14837 13.8224 7.0602 14.0663C6.96599 14.3275 6.90646 14.6009 6.83309 14.8671L6.83421 14.8706ZM6.55106 2.26242C6.55106 2.26242 6.54534 2.25653 6.54073 2.25414L6.13464 2.38332C6.13464 2.38332 6.13687 2.39033 6.13798 2.39383L6.55106 2.26242ZM4.921 2.85806C4.921 2.85806 4.92323 2.86506 4.92434 2.86856L5.25691 2.76277C5.25691 2.76277 5.25469 2.75577 5.25357 2.75227L4.921 2.85806ZM7.65411 1.80358C7.65411 1.80358 7.66668 1.81885 7.67591 1.82362L7.85445 1.76683C7.85445 1.76683 7.84888 1.74933 7.84665 1.74233L7.65411 1.80358ZM4.32556 3.15542C4.32556 3.15542 4.31999 3.13793 4.31777 3.13093L4.14018 3.20283C4.14018 3.20283 4.14241 3.20984 4.14464 3.21684L4.32668 3.15893L4.32556 3.15542ZM3.62525 3.47458C3.62525 3.47458 3.6208 3.46058 3.61857 3.45357L3.44354 3.50926C3.44354 3.50926 3.44799 3.52326 3.45022 3.53026L3.62525 3.47458ZM2.06854 4.22808C2.06854 4.22808 2.04738 4.24638 2.0391 4.25672C2.04961 4.25338 2.0636 4.24893 2.07411 4.24558C2.08461 4.24224 2.094 4.2354 2.10339 4.22856C2.09178 4.2284 2.08016 4.22824 2.06854 4.22808ZM2.49547 4.01903L2.48179 4.00025C2.45729 4.00804 2.43389 4.01934 2.4105 4.03063C2.41273 4.03763 2.42418 4.04941 2.42418 4.04941C2.44869 4.04161 2.47208 4.03032 2.49547 4.01903ZM3.07787 3.74124C3.04891 3.73503 3.03395 3.72437 3.02807 3.73009C3.00579 3.74489 2.98112 3.7643 2.95885 3.7791L3.07787 3.74124ZM1.2325 4.70222C1.2325 4.70222 1.25127 4.68853 1.26066 4.68169C1.25143 4.67692 1.23759 4.66975 1.23059 4.67198C1.22009 4.67532 1.21182 4.68567 1.20131 4.68901C1.21054 4.69378 1.22215 4.69394 1.23138 4.69871L1.2325 4.70222ZM1.71146 4.42649C1.71146 4.42649 1.69046 4.43317 1.67646 4.43762C1.68918 4.44128 1.70542 4.44383 1.71815 4.44749C1.71592 4.44049 1.71369 4.43349 1.71146 4.42649ZM0.974711 4.86132L0.949256 4.854L0.948935 4.87723L0.974711 4.86132Z" fill="#FF7A00"/>
<path d="M6.86739 14.9722C6.85626 14.9372 6.84512 14.9022 6.83398 14.8672C6.84417 14.8871 6.86247 14.9082 6.86915 14.9292C6.87249 14.9397 6.86994 14.956 6.86978 14.9676L6.86739 14.9722Z" fill="#FF7A00"/>
<path d="M6.65464 15.7719C6.65464 15.7719 6.66314 15.7612 6.66674 15.7601L6.65464 15.7719Z" fill="#FF7A00"/>
<path d="M6.47856 17.2043L6.47467 17.2178L6.48363 17.1945L6.47856 17.2043Z" fill="#FF7A00"/>
<path d="M6.47465 17.4836L6.47076 17.4971L6.47973 17.4738L6.47465 17.4836Z" fill="#FF7A00"/>
</svg>
