<svg width="2141" height="977" viewBox="0 0 2141 977" fill="none" xmlns="http://www.w3.org/2000/svg">
<path d="M9.5 98.3496L7.92917 84.566C3.4541 45.2985 29.9506 9.20017 68.7541 1.69951C95.752 -3.51914 123.456 6.31799 141.117 27.3941L170.914 62.953C215.798 116.516 291.052 133.272 354.422 103.815L423.829 71.5508C484.305 43.438 554.981 48.351 610.987 84.561C675.951 126.564 759.657 125.967 824.016 83.0427L850.95 65.0795C860.619 58.6306 870.986 53.2949 881.853 49.1739C937.01 28.2581 999.265 40.6217 1042.24 81.0267L1068.36 105.58C1148.81 181.21 1275.32 177.339 1351 96.9317L1360.96 86.3403C1370.29 76.4254 1380.65 67.5295 1391.86 59.8023L1441.74 25.4229C1497.49 -13.0098 1573.54 -1.36204 1615.23 51.9975C1661.01 110.589 1746.92 117.967 1802.02 68.0386L1806.79 63.7186C1812.9 58.1833 1819.75 53.5249 1827.14 49.8776C1876.65 25.4528 1936.22 51.6071 1951.74 104.586L2132.22 720.617C2170.09 849.902 2071.91 978.897 1937.2 976.823L0 947L9.5 98.3496Z" fill="#FF7A00" fill-opacity="0.4"/>
</svg>
