<svg width="1920" height="616" viewBox="0 0 1920 616" fill="none" xmlns="http://www.w3.org/2000/svg">
<path d="M0 0.5L109.098 150.099C135.944 186.911 166.932 220.515 201.453 250.248L243.099 286.118C271.78 310.821 304.83 329.938 340.543 342.483C396.298 362.067 456.56 364.941 513.926 350.751L577.925 334.92C694.13 306.175 816.672 318.071 925.179 368.629L947.242 378.909C1034.76 419.686 1130.9 438.484 1227.33 433.67L1331.15 428.487C1377.61 426.168 1423.74 419.368 1468.89 408.181C1605.02 374.457 1748.02 381.072 1880.45 427.218L1920 441V616H0V0.5Z" fill="#FFEAD7"/>
</svg>
