<svg width="21" height="19" viewBox="0 0 21 19" fill="none" xmlns="http://www.w3.org/2000/svg">
<path d="M10.026 0.985742C10.1785 0.531069 10.8215 0.53107 10.974 0.985742L12.6036 5.84436C12.8086 6.45552 13.3812 6.86737 14.0258 6.86737H19.23C19.7182 6.86737 19.917 7.49526 19.5178 7.77625L15.3627 10.7008C14.8202 11.0826 14.5929 11.7754 14.8039 12.4044L16.4038 17.1745C16.5574 17.6324 16.0369 18.0204 15.642 17.7424L11.3634 14.731C10.8455 14.3665 10.1545 14.3665 9.63665 14.731L5.35804 17.7424C4.96311 18.0204 4.44264 17.6324 4.59621 17.1745L6.19612 12.4044C6.40708 11.7754 6.17983 11.0826 5.63733 10.7008L1.48221 7.77625C1.08298 7.49526 1.2818 6.86737 1.76999 6.86737H6.97423C7.61885 6.86737 8.19138 6.45552 8.39637 5.84436L10.026 0.985742Z" fill="#FFD707" stroke="black"/>
</svg>
