<svg width="20" height="19" viewBox="0 0 20 19" fill="none" xmlns="http://www.w3.org/2000/svg">
<path d="M9.52595 0.985742C9.67845 0.531069 10.3215 0.53107 10.474 0.985742L12.1036 5.84436C12.3086 6.45552 12.8812 6.86737 13.5258 6.86737H18.73C19.2182 6.86737 19.417 7.49526 19.0178 7.77625L14.8627 10.7008C14.3202 11.0826 14.0929 11.7754 14.3039 12.4044L15.9038 17.1745C16.0574 17.6324 15.5369 18.0204 15.142 17.7424L10.8634 14.731C10.3455 14.3665 9.65451 14.3665 9.13665 14.731L4.85804 17.7424C4.46311 18.0204 3.94264 17.6324 4.09621 17.1745L5.69612 12.4044C5.90708 11.7754 5.67983 11.0826 5.13733 10.7008L0.982209 7.77625C0.582984 7.49526 0.781795 6.86737 1.26999 6.86737H6.47423C7.11885 6.86737 7.69138 6.45552 7.89637 5.84436L9.52595 0.985742Z" fill="#FFD707" stroke="black"/>
</svg>
