<svg width="476" height="261" viewBox="0 0 476 261" fill="none" xmlns="http://www.w3.org/2000/svg">
<path d="M20.2924 59.3362L84.5202 14.5793C112.146 -4.67182 149.222 -3.12481 175.148 18.3608L214.591 51.0476C252.241 82.2498 305.418 86.4852 347.533 61.6363L375.183 45.3219C397.717 32.0268 425.957 33.2025 447.307 48.3246C478.194 70.202 484.575 113.433 461.324 143.301L457.804 147.823C451.73 155.626 447.331 164.598 444.882 174.179L437.517 203.002C424.952 252.169 368.369 275.117 325.106 248.593C310.491 239.633 293.257 235.923 276.249 238.076L125.024 257.219C92.0334 261.395 65.7541 230.088 75.584 198.32L76.063 196.772C84.1648 170.59 66.825 143.397 39.6685 139.697C-0.379295 134.241 -12.8682 82.4441 20.2924 59.3362Z" stroke="#FF7A00" stroke-opacity="0.3"/>
</svg>
