<svg width="441" height="276" viewBox="0 0 441 276" fill="none" xmlns="http://www.w3.org/2000/svg">
<path d="M153.3 267.467L97.8019 253.415C56.0849 242.852 22.402 211.971 8.16724 171.359C-8.86994 122.753 4.85689 68.5352 43.069 34.0004C77.848 2.56835 127.033 -7.32337 171.26 8.2199L199.823 18.2586C224.636 26.9788 251.066 30.1194 277.23 27.4566L304.693 24.6618C334.228 21.656 363.853 29.4449 388.091 46.5885L390.972 48.6263C417.419 67.3332 434.742 96.3352 438.674 128.491C443.535 168.247 427.343 207.666 395.94 232.527L385.529 240.769C362.754 258.799 334.888 269.216 305.87 270.547L221.727 274.407C198.701 275.463 175.645 273.125 153.3 267.467Z" stroke="#FF7A00" stroke-opacity="0.2"/>
</svg>
