<svg width="439" height="256" viewBox="0 0 439 256" fill="none" xmlns="http://www.w3.org/2000/svg">
<path d="M42.0834 32.9286L46.2967 29.4159C78.7098 2.39263 122.723 -6.10508 162.866 6.90968L198.696 18.5258C223.454 26.5525 249.59 29.438 275.503 27.0053L307.044 24.0441C334.277 21.4874 361.574 28.2326 384.482 43.1799L392.147 48.1818C416.821 64.281 433.242 90.3442 437.113 119.55C441.975 156.23 426.406 192.634 396.526 214.456L381.504 225.426C360.378 240.855 335.154 249.679 309.017 250.785L218.455 254.617C196.771 255.535 175.064 253.497 153.929 248.561L89.6381 233.544C52.3212 224.827 21.7837 198.121 8.17232 162.298C-9.28393 116.357 4.33533 64.3997 42.0834 32.9286Z" fill="#FFF1E4" stroke="#FF7A00"/>
</svg>
